<mxfile host="65bd71144e" pages="2">
    <diagram name="Template" id="edf60f1a-56cd-e834-aa8a-f176f3a09ee4">
        <mxGraphModel dx="1145" dy="787" grid="1" gridSize="10" guides="1" tooltips="1" connect="1" arrows="1" fold="1" page="1" pageScale="1" pageWidth="1100" pageHeight="850" background="none" math="0" shadow="0">
            <root>
                <mxCell id="0"/>
                <mxCell id="1" parent="0"/>
                <mxCell id="WWQbz6wPf3Sozf4rR9uV-9" value="Terminator" style="strokeWidth=1;html=1;shape=mxgraph.flowchart.terminator;whiteSpace=wrap;" parent="1" vertex="1">
                    <mxGeometry x="290" y="450" width="100" height="60" as="geometry"/>
                </mxCell>
                <mxCell id="WWQbz6wPf3Sozf4rR9uV-11" value="Data" style="shape=parallelogram;html=1;strokeWidth=1;perimeter=parallelogramPerimeter;whiteSpace=wrap;rounded=1;arcSize=12;size=0.23;" parent="1" vertex="1">
                    <mxGeometry x="290" y="530" width="100" height="60" as="geometry"/>
                </mxCell>
                <mxCell id="WWQbz6wPf3Sozf4rR9uV-12" value="Decision" style="strokeWidth=1;html=1;shape=mxgraph.flowchart.decision;whiteSpace=wrap;" parent="1" vertex="1">
                    <mxGeometry x="450" y="370" width="100" height="60" as="geometry"/>
                </mxCell>
                <mxCell id="WWQbz6wPf3Sozf4rR9uV-13" value="Process" style="rounded=1;whiteSpace=wrap;html=1;absoluteArcSize=1;arcSize=14;strokeWidth=1;" parent="1" vertex="1">
                    <mxGeometry x="440" y="570" width="120" height="60" as="geometry"/>
                </mxCell>
                <mxCell id="WWQbz6wPf3Sozf4rR9uV-14" value="Document" style="strokeWidth=1;html=1;shape=mxgraph.flowchart.document2;whiteSpace=wrap;size=0.25;" parent="1" vertex="1">
                    <mxGeometry x="290" y="610" width="100" height="60" as="geometry"/>
                </mxCell>
                <mxCell id="WWQbz6wPf3Sozf4rR9uV-15" value="Manual Operation" style="verticalLabelPosition=middle;verticalAlign=middle;html=1;shape=trapezoid;perimeter=trapezoidPerimeter;whiteSpace=wrap;size=0.23;arcSize=10;flipV=1;labelPosition=center;align=center;" parent="1" vertex="1">
                    <mxGeometry x="450" y="450" width="100" height="60" as="geometry"/>
                </mxCell>
                <mxCell id="WWQbz6wPf3Sozf4rR9uV-17" value="Start" style="strokeWidth=1;html=1;shape=mxgraph.flowchart.start_1;whiteSpace=wrap;" parent="1" vertex="1">
                    <mxGeometry x="290" y="330" width="100" height="60" as="geometry"/>
                </mxCell>
                <mxCell id="l2vLneklxePcnkrsgtZB-1" value="1" style="strokeWidth=1;html=1;shape=mxgraph.flowchart.start_2;whiteSpace=wrap;" parent="1" vertex="1">
                    <mxGeometry x="480" y="520" width="40" height="40" as="geometry"/>
                </mxCell>
                <mxCell id="wM0pEcYPzTK4xD86a-Km-1" value="1" style="shape=offPageConnector;whiteSpace=wrap;html=1;" parent="1" vertex="1">
                    <mxGeometry x="480" y="640" width="40" height="40" as="geometry"/>
                </mxCell>
                <mxCell id="dEaPoP0R5mpYvijRIFDf-1" value="" style="verticalLabelPosition=bottom;verticalAlign=top;html=1;shape=mxgraph.flowchart.or;gradientColor=none;gradientDirection=east;" parent="1" vertex="1">
                    <mxGeometry x="320" y="680" width="40" height="40" as="geometry"/>
                </mxCell>
            </root>
        </mxGraphModel>
    </diagram>
    <diagram name="Authentication" id="twpliGQtgx8Q3oraEzRI">
        <mxGraphModel dx="954" dy="656" grid="1" gridSize="10" guides="1" tooltips="1" connect="1" arrows="1" fold="1" page="1" pageScale="1" pageWidth="1100" pageHeight="850" background="none" math="0" shadow="0">
            <root>
                <mxCell id="vFjSIB8aWJBhCEDBPgKq-0"/>
                <mxCell id="vFjSIB8aWJBhCEDBPgKq-1" parent="vFjSIB8aWJBhCEDBPgKq-0"/>
                <mxCell id="sjI-uefKwddV1z8wX9Dy-2" style="edgeStyle=orthogonalEdgeStyle;rounded=1;orthogonalLoop=1;jettySize=auto;html=1;" parent="vFjSIB8aWJBhCEDBPgKq-1" source="vFjSIB8aWJBhCEDBPgKq-8" target="sjI-uefKwddV1z8wX9Dy-1" edge="1">
                    <mxGeometry relative="1" as="geometry"/>
                </mxCell>
                <mxCell id="vFjSIB8aWJBhCEDBPgKq-8" value="user opens landing page" style="strokeWidth=1;html=1;shape=mxgraph.flowchart.start_1;whiteSpace=wrap;" parent="vFjSIB8aWJBhCEDBPgKq-1" vertex="1">
                    <mxGeometry x="50" y="50" width="100" height="60" as="geometry"/>
                </mxCell>
                <mxCell id="sjI-uefKwddV1z8wX9Dy-17" value="no" style="edgeStyle=orthogonalEdgeStyle;rounded=1;orthogonalLoop=1;jettySize=auto;html=1;" parent="vFjSIB8aWJBhCEDBPgKq-1" source="sjI-uefKwddV1z8wX9Dy-1" target="sjI-uefKwddV1z8wX9Dy-4" edge="1">
                    <mxGeometry relative="1" as="geometry"/>
                </mxCell>
                <mxCell id="sjI-uefKwddV1z8wX9Dy-51" value="yes" style="edgeStyle=orthogonalEdgeStyle;rounded=1;orthogonalLoop=1;jettySize=auto;html=1;" parent="vFjSIB8aWJBhCEDBPgKq-1" source="sjI-uefKwddV1z8wX9Dy-1" target="sjI-uefKwddV1z8wX9Dy-3" edge="1">
                    <mxGeometry relative="1" as="geometry"/>
                </mxCell>
                <mxCell id="sjI-uefKwddV1z8wX9Dy-1" value="signed in?" style="strokeWidth=1;html=1;shape=mxgraph.flowchart.decision;whiteSpace=wrap;" parent="vFjSIB8aWJBhCEDBPgKq-1" vertex="1">
                    <mxGeometry x="50" y="170" width="100" height="60" as="geometry"/>
                </mxCell>
                <mxCell id="sjI-uefKwddV1z8wX9Dy-57" style="edgeStyle=orthogonalEdgeStyle;rounded=1;orthogonalLoop=1;jettySize=auto;html=1;" parent="vFjSIB8aWJBhCEDBPgKq-1" source="sjI-uefKwddV1z8wX9Dy-3" target="sjI-uefKwddV1z8wX9Dy-56" edge="1">
                    <mxGeometry relative="1" as="geometry"/>
                </mxCell>
                <mxCell id="sjI-uefKwddV1z8wX9Dy-3" value="show landing page with dashboard button" style="rounded=1;whiteSpace=wrap;html=1;absoluteArcSize=1;arcSize=14;strokeWidth=1;" parent="vFjSIB8aWJBhCEDBPgKq-1" vertex="1">
                    <mxGeometry x="40" y="290" width="120" height="60" as="geometry"/>
                </mxCell>
                <mxCell id="sjI-uefKwddV1z8wX9Dy-38" style="edgeStyle=orthogonalEdgeStyle;rounded=1;orthogonalLoop=1;jettySize=auto;html=1;" parent="vFjSIB8aWJBhCEDBPgKq-1" source="sjI-uefKwddV1z8wX9Dy-4" target="sjI-uefKwddV1z8wX9Dy-12" edge="1">
                    <mxGeometry relative="1" as="geometry"/>
                </mxCell>
                <mxCell id="sjI-uefKwddV1z8wX9Dy-4" value="show landing page with sign in button" style="rounded=1;whiteSpace=wrap;html=1;absoluteArcSize=1;arcSize=14;strokeWidth=1;" parent="vFjSIB8aWJBhCEDBPgKq-1" vertex="1">
                    <mxGeometry x="200" y="170" width="120" height="60" as="geometry"/>
                </mxCell>
                <mxCell id="sjI-uefKwddV1z8wX9Dy-83" value="yes" style="edgeStyle=orthogonalEdgeStyle;rounded=1;orthogonalLoop=1;jettySize=auto;html=1;" parent="vFjSIB8aWJBhCEDBPgKq-1" source="sjI-uefKwddV1z8wX9Dy-7" target="kBC9uTitbcMPu4KxSiPe-0" edge="1">
                    <mxGeometry relative="1" as="geometry">
                        <mxPoint x="580" y="300" as="targetPoint"/>
                    </mxGeometry>
                </mxCell>
                <mxCell id="sjI-uefKwddV1z8wX9Dy-84" value="no" style="edgeStyle=orthogonalEdgeStyle;rounded=1;orthogonalLoop=1;jettySize=auto;html=1;" parent="vFjSIB8aWJBhCEDBPgKq-1" source="sjI-uefKwddV1z8wX9Dy-7" target="kBC9uTitbcMPu4KxSiPe-3" edge="1">
                    <mxGeometry relative="1" as="geometry">
                        <mxPoint x="740.0000000000002" y="300" as="targetPoint"/>
                    </mxGeometry>
                </mxCell>
                <mxCell id="sjI-uefKwddV1z8wX9Dy-7" value="have an&lt;br&gt;account?" style="strokeWidth=1;html=1;shape=mxgraph.flowchart.decision;whiteSpace=wrap;" parent="vFjSIB8aWJBhCEDBPgKq-1" vertex="1">
                    <mxGeometry x="370" y="290" width="100" height="60" as="geometry"/>
                </mxCell>
                <mxCell id="sjI-uefKwddV1z8wX9Dy-24" value="yes" style="edgeStyle=orthogonalEdgeStyle;rounded=1;orthogonalLoop=1;jettySize=auto;html=1;" parent="vFjSIB8aWJBhCEDBPgKq-1" source="sjI-uefKwddV1z8wX9Dy-12" target="sjI-uefKwddV1z8wX9Dy-7" edge="1">
                    <mxGeometry relative="1" as="geometry"/>
                </mxCell>
                <mxCell id="sjI-uefKwddV1z8wX9Dy-82" value="no" style="edgeStyle=orthogonalEdgeStyle;rounded=1;orthogonalLoop=1;jettySize=auto;html=1;entryX=0.5;entryY=0;entryDx=0;entryDy=0;" parent="vFjSIB8aWJBhCEDBPgKq-1" source="sjI-uefKwddV1z8wX9Dy-12" target="sjI-uefKwddV1z8wX9Dy-4" edge="1">
                    <mxGeometry relative="1" as="geometry">
                        <Array as="points">
                            <mxPoint x="420" y="150"/>
                            <mxPoint x="260" y="150"/>
                        </Array>
                    </mxGeometry>
                </mxCell>
                <mxCell id="sjI-uefKwddV1z8wX9Dy-12" value="want to sign in?" style="strokeWidth=1;html=1;shape=mxgraph.flowchart.decision;whiteSpace=wrap;" parent="vFjSIB8aWJBhCEDBPgKq-1" vertex="1">
                    <mxGeometry x="370" y="170" width="100" height="60" as="geometry"/>
                </mxCell>
                <mxCell id="sjI-uefKwddV1z8wX9Dy-63" value="yes" style="edgeStyle=orthogonalEdgeStyle;rounded=1;orthogonalLoop=1;jettySize=auto;html=1;" parent="vFjSIB8aWJBhCEDBPgKq-1" source="sjI-uefKwddV1z8wX9Dy-56" target="N0m6JV3VvyiPqrdoSzJ2-0" edge="1">
                    <mxGeometry relative="1" as="geometry">
                        <mxPoint x="360" y="440" as="targetPoint"/>
                    </mxGeometry>
                </mxCell>
                <mxCell id="sjI-uefKwddV1z8wX9Dy-75" value="no" style="edgeStyle=orthogonalEdgeStyle;rounded=1;orthogonalLoop=1;jettySize=auto;html=1;" parent="vFjSIB8aWJBhCEDBPgKq-1" source="sjI-uefKwddV1z8wX9Dy-56" target="sjI-uefKwddV1z8wX9Dy-71" edge="1">
                    <mxGeometry relative="1" as="geometry"/>
                </mxCell>
                <mxCell id="sjI-uefKwddV1z8wX9Dy-56" value="want to open&lt;br&gt;dashboard?" style="strokeWidth=1;html=1;shape=mxgraph.flowchart.decision;whiteSpace=wrap;" parent="vFjSIB8aWJBhCEDBPgKq-1" vertex="1">
                    <mxGeometry x="50" y="410" width="100" height="60" as="geometry"/>
                </mxCell>
                <mxCell id="sjI-uefKwddV1z8wX9Dy-80" value="no" style="edgeStyle=orthogonalEdgeStyle;rounded=1;orthogonalLoop=1;jettySize=auto;html=1;entryX=0;entryY=0.5;entryDx=0;entryDy=0;" parent="vFjSIB8aWJBhCEDBPgKq-1" source="sjI-uefKwddV1z8wX9Dy-71" target="sjI-uefKwddV1z8wX9Dy-3" edge="1">
                    <mxGeometry relative="1" as="geometry">
                        <Array as="points">
                            <mxPoint x="20" y="560"/>
                            <mxPoint x="20" y="320"/>
                        </Array>
                    </mxGeometry>
                </mxCell>
                <mxCell id="nz09eHchmKnq_TjaQ7NO-0" style="edgeStyle=orthogonalEdgeStyle;html=1;" edge="1" parent="vFjSIB8aWJBhCEDBPgKq-1" source="sjI-uefKwddV1z8wX9Dy-71" target="yDI2sjeIhTd0vfZzBRfV-0">
                    <mxGeometry relative="1" as="geometry">
                        <mxPoint x="100" y="650" as="targetPoint"/>
                    </mxGeometry>
                </mxCell>
                <mxCell id="sjI-uefKwddV1z8wX9Dy-71" value="click offer?" style="strokeWidth=1;html=1;shape=mxgraph.flowchart.decision;whiteSpace=wrap;" parent="vFjSIB8aWJBhCEDBPgKq-1" vertex="1">
                    <mxGeometry x="50" y="530" width="100" height="60" as="geometry"/>
                </mxCell>
                <mxCell id="kBC9uTitbcMPu4KxSiPe-0" value="1A" style="strokeWidth=1;html=1;shape=mxgraph.flowchart.start_2;whiteSpace=wrap;" parent="vFjSIB8aWJBhCEDBPgKq-1" vertex="1">
                    <mxGeometry x="400" y="420" width="40" height="40" as="geometry"/>
                </mxCell>
                <mxCell id="kBC9uTitbcMPu4KxSiPe-3" value="2A" style="strokeWidth=1;html=1;shape=mxgraph.flowchart.start_2;whiteSpace=wrap;" parent="vFjSIB8aWJBhCEDBPgKq-1" vertex="1">
                    <mxGeometry x="240" y="300" width="40" height="40" as="geometry"/>
                </mxCell>
                <mxCell id="KgspZBJ3WnkwDHsDAfC4-3" value="no" style="edgeStyle=orthogonalEdgeStyle;rounded=1;html=1;startArrow=none;" parent="vFjSIB8aWJBhCEDBPgKq-1" source="KgspZBJ3WnkwDHsDAfC4-14" target="KgspZBJ3WnkwDHsDAfC4-1" edge="1">
                    <mxGeometry relative="1" as="geometry"/>
                </mxCell>
                <mxCell id="KgspZBJ3WnkwDHsDAfC4-24" style="edgeStyle=orthogonalEdgeStyle;rounded=1;html=1;" parent="vFjSIB8aWJBhCEDBPgKq-1" source="KgspZBJ3WnkwDHsDAfC4-0" target="KgspZBJ3WnkwDHsDAfC4-21" edge="1">
                    <mxGeometry relative="1" as="geometry"/>
                </mxCell>
                <mxCell id="KgspZBJ3WnkwDHsDAfC4-0" value="1A" style="strokeWidth=1;html=1;shape=mxgraph.flowchart.start_2;whiteSpace=wrap;" parent="vFjSIB8aWJBhCEDBPgKq-1" vertex="1">
                    <mxGeometry x="759.94" y="60" width="40" height="40" as="geometry"/>
                </mxCell>
                <mxCell id="KgspZBJ3WnkwDHsDAfC4-34" style="edgeStyle=orthogonalEdgeStyle;rounded=1;html=1;elbow=vertical;" parent="vFjSIB8aWJBhCEDBPgKq-1" source="KgspZBJ3WnkwDHsDAfC4-1" target="KgspZBJ3WnkwDHsDAfC4-7" edge="1">
                    <mxGeometry relative="1" as="geometry"/>
                </mxCell>
                <mxCell id="KgspZBJ3WnkwDHsDAfC4-1" value="fill sign in&lt;br&gt;form" style="verticalLabelPosition=middle;verticalAlign=middle;html=1;shape=trapezoid;perimeter=trapezoidPerimeter;whiteSpace=wrap;size=0.23;arcSize=10;flipV=1;labelPosition=center;align=center;" parent="vFjSIB8aWJBhCEDBPgKq-1" vertex="1">
                    <mxGeometry x="889.94" y="410" width="100" height="60" as="geometry"/>
                </mxCell>
                <mxCell id="KgspZBJ3WnkwDHsDAfC4-2" value="sign in" style="text;html=1;strokeColor=none;fillColor=none;align=left;verticalAlign=middle;whiteSpace=wrap;rounded=0;" parent="vFjSIB8aWJBhCEDBPgKq-1" vertex="1">
                    <mxGeometry x="809.94" y="65" width="60" height="30" as="geometry"/>
                </mxCell>
                <mxCell id="KgspZBJ3WnkwDHsDAfC4-9" value="yes" style="edgeStyle=orthogonalEdgeStyle;rounded=1;html=1;" parent="vFjSIB8aWJBhCEDBPgKq-1" source="KgspZBJ3WnkwDHsDAfC4-7" target="KgspZBJ3WnkwDHsDAfC4-8" edge="1">
                    <mxGeometry relative="1" as="geometry">
                        <Array as="points">
                            <mxPoint x="939.94" y="680"/>
                        </Array>
                    </mxGeometry>
                </mxCell>
                <mxCell id="KgspZBJ3WnkwDHsDAfC4-17" value="no" style="edgeStyle=orthogonalEdgeStyle;rounded=1;html=1;" parent="vFjSIB8aWJBhCEDBPgKq-1" source="KgspZBJ3WnkwDHsDAfC4-7" target="KgspZBJ3WnkwDHsDAfC4-12" edge="1">
                    <mxGeometry relative="1" as="geometry"/>
                </mxCell>
                <mxCell id="KgspZBJ3WnkwDHsDAfC4-7" value="user exists?" style="strokeWidth=1;html=1;shape=mxgraph.flowchart.decision;whiteSpace=wrap;" parent="vFjSIB8aWJBhCEDBPgKq-1" vertex="1">
                    <mxGeometry x="889.94" y="530" width="100" height="60" as="geometry"/>
                </mxCell>
                <mxCell id="KgspZBJ3WnkwDHsDAfC4-11" value="yes" style="edgeStyle=orthogonalEdgeStyle;rounded=1;html=1;" parent="vFjSIB8aWJBhCEDBPgKq-1" source="KgspZBJ3WnkwDHsDAfC4-8" target="KgspZBJ3WnkwDHsDAfC4-10" edge="1">
                    <mxGeometry relative="1" as="geometry"/>
                </mxCell>
                <mxCell id="Fj0rVQDLP_KVoNsKhhQr-4" style="edgeStyle=orthogonalEdgeStyle;html=1;" parent="vFjSIB8aWJBhCEDBPgKq-1" source="KgspZBJ3WnkwDHsDAfC4-8" target="Fj0rVQDLP_KVoNsKhhQr-2" edge="1">
                    <mxGeometry relative="1" as="geometry"/>
                </mxCell>
                <mxCell id="KgspZBJ3WnkwDHsDAfC4-8" value="correct password?" style="strokeWidth=1;html=1;shape=mxgraph.flowchart.decision;whiteSpace=wrap;" parent="vFjSIB8aWJBhCEDBPgKq-1" vertex="1">
                    <mxGeometry x="729.94" y="650" width="100" height="60" as="geometry"/>
                </mxCell>
                <mxCell id="KgspZBJ3WnkwDHsDAfC4-10" value="1B" style="strokeWidth=1;html=1;shape=mxgraph.flowchart.start_2;whiteSpace=wrap;" parent="vFjSIB8aWJBhCEDBPgKq-1" vertex="1">
                    <mxGeometry x="759.94" y="780" width="40" height="40" as="geometry"/>
                </mxCell>
                <mxCell id="KgspZBJ3WnkwDHsDAfC4-35" style="edgeStyle=orthogonalEdgeStyle;rounded=1;html=1;elbow=vertical;" parent="vFjSIB8aWJBhCEDBPgKq-1" source="KgspZBJ3WnkwDHsDAfC4-12" target="KgspZBJ3WnkwDHsDAfC4-21" edge="1">
                    <mxGeometry relative="1" as="geometry"/>
                </mxCell>
                <mxCell id="KgspZBJ3WnkwDHsDAfC4-12" value="show error user doesn't exists" style="rounded=1;whiteSpace=wrap;html=1;absoluteArcSize=1;arcSize=14;strokeWidth=1;" parent="vFjSIB8aWJBhCEDBPgKq-1" vertex="1">
                    <mxGeometry x="719.94" y="530" width="120" height="60" as="geometry"/>
                </mxCell>
                <mxCell id="KgspZBJ3WnkwDHsDAfC4-40" value="yes" style="edgeStyle=orthogonalEdgeStyle;rounded=1;html=1;elbow=vertical;" parent="vFjSIB8aWJBhCEDBPgKq-1" source="KgspZBJ3WnkwDHsDAfC4-14" target="KgspZBJ3WnkwDHsDAfC4-37" edge="1">
                    <mxGeometry relative="1" as="geometry"/>
                </mxCell>
                <mxCell id="KgspZBJ3WnkwDHsDAfC4-14" value="forget&lt;br&gt;password?" style="strokeWidth=1;html=1;shape=mxgraph.flowchart.decision;whiteSpace=wrap;" parent="vFjSIB8aWJBhCEDBPgKq-1" vertex="1">
                    <mxGeometry x="889.94" y="290" width="100" height="60" as="geometry"/>
                </mxCell>
                <mxCell id="KgspZBJ3WnkwDHsDAfC4-43" style="edgeStyle=orthogonalEdgeStyle;rounded=1;html=1;elbow=vertical;" parent="vFjSIB8aWJBhCEDBPgKq-1" source="KgspZBJ3WnkwDHsDAfC4-19" target="KgspZBJ3WnkwDHsDAfC4-28" edge="1">
                    <mxGeometry relative="1" as="geometry"/>
                </mxCell>
                <mxCell id="KgspZBJ3WnkwDHsDAfC4-19" value="fill forget password&lt;br&gt;form" style="verticalLabelPosition=middle;verticalAlign=middle;html=1;shape=trapezoid;perimeter=trapezoidPerimeter;whiteSpace=wrap;size=0.23;arcSize=10;flipV=1;labelPosition=center;align=center;" parent="vFjSIB8aWJBhCEDBPgKq-1" vertex="1">
                    <mxGeometry x="1049.94" y="410" width="100" height="60" as="geometry"/>
                </mxCell>
                <mxCell id="KgspZBJ3WnkwDHsDAfC4-23" style="edgeStyle=orthogonalEdgeStyle;rounded=1;html=1;" parent="vFjSIB8aWJBhCEDBPgKq-1" source="KgspZBJ3WnkwDHsDAfC4-21" target="KgspZBJ3WnkwDHsDAfC4-14" edge="1">
                    <mxGeometry relative="1" as="geometry"/>
                </mxCell>
                <mxCell id="KgspZBJ3WnkwDHsDAfC4-21" value="show sign in form" style="rounded=1;whiteSpace=wrap;html=1;absoluteArcSize=1;arcSize=14;strokeWidth=1;" parent="vFjSIB8aWJBhCEDBPgKq-1" vertex="1">
                    <mxGeometry x="719.94" y="170" width="120" height="60" as="geometry"/>
                </mxCell>
                <mxCell id="KgspZBJ3WnkwDHsDAfC4-44" value="no" style="edgeStyle=orthogonalEdgeStyle;rounded=1;html=1;elbow=vertical;" parent="vFjSIB8aWJBhCEDBPgKq-1" source="KgspZBJ3WnkwDHsDAfC4-28" target="KgspZBJ3WnkwDHsDAfC4-38" edge="1">
                    <mxGeometry relative="1" as="geometry"/>
                </mxCell>
                <mxCell id="KgspZBJ3WnkwDHsDAfC4-46" value="yes" style="edgeStyle=orthogonalEdgeStyle;rounded=1;html=1;elbow=vertical;" parent="vFjSIB8aWJBhCEDBPgKq-1" source="KgspZBJ3WnkwDHsDAfC4-28" target="KgspZBJ3WnkwDHsDAfC4-29" edge="1">
                    <mxGeometry relative="1" as="geometry"/>
                </mxCell>
                <mxCell id="KgspZBJ3WnkwDHsDAfC4-28" value="email exists?" style="strokeWidth=1;html=1;shape=mxgraph.flowchart.decision;whiteSpace=wrap;" parent="vFjSIB8aWJBhCEDBPgKq-1" vertex="1">
                    <mxGeometry x="1049.94" y="530" width="100" height="60" as="geometry"/>
                </mxCell>
                <mxCell id="KgspZBJ3WnkwDHsDAfC4-32" style="edgeStyle=orthogonalEdgeStyle;rounded=1;html=1;elbow=vertical;" parent="vFjSIB8aWJBhCEDBPgKq-1" source="KgspZBJ3WnkwDHsDAfC4-29" target="KgspZBJ3WnkwDHsDAfC4-31" edge="1">
                    <mxGeometry relative="1" as="geometry"/>
                </mxCell>
                <mxCell id="KgspZBJ3WnkwDHsDAfC4-29" value="send reset password email" style="rounded=1;whiteSpace=wrap;html=1;absoluteArcSize=1;arcSize=14;strokeWidth=1;" parent="vFjSIB8aWJBhCEDBPgKq-1" vertex="1">
                    <mxGeometry x="1199.94" y="530" width="120" height="60" as="geometry"/>
                </mxCell>
                <mxCell id="KgspZBJ3WnkwDHsDAfC4-47" style="edgeStyle=orthogonalEdgeStyle;rounded=1;html=1;entryX=1;entryY=0.25;entryDx=0;entryDy=0;elbow=vertical;" parent="vFjSIB8aWJBhCEDBPgKq-1" source="KgspZBJ3WnkwDHsDAfC4-30" target="KgspZBJ3WnkwDHsDAfC4-21" edge="1">
                    <mxGeometry relative="1" as="geometry">
                        <Array as="points">
                            <mxPoint x="1259.94" y="185"/>
                        </Array>
                    </mxGeometry>
                </mxCell>
                <mxCell id="KgspZBJ3WnkwDHsDAfC4-30" value="fill reset&lt;br&gt;password&lt;br&gt;form" style="verticalLabelPosition=middle;verticalAlign=middle;html=1;shape=trapezoid;perimeter=trapezoidPerimeter;whiteSpace=wrap;size=0.23;arcSize=10;flipV=1;labelPosition=center;align=center;" parent="vFjSIB8aWJBhCEDBPgKq-1" vertex="1">
                    <mxGeometry x="1209.94" y="290" width="100" height="60" as="geometry"/>
                </mxCell>
                <mxCell id="KgspZBJ3WnkwDHsDAfC4-33" style="edgeStyle=orthogonalEdgeStyle;rounded=1;html=1;elbow=vertical;" parent="vFjSIB8aWJBhCEDBPgKq-1" source="KgspZBJ3WnkwDHsDAfC4-31" target="KgspZBJ3WnkwDHsDAfC4-30" edge="1">
                    <mxGeometry relative="1" as="geometry"/>
                </mxCell>
                <mxCell id="KgspZBJ3WnkwDHsDAfC4-31" value="open reset password&lt;br&gt;url" style="verticalLabelPosition=middle;verticalAlign=middle;html=1;shape=trapezoid;perimeter=trapezoidPerimeter;whiteSpace=wrap;size=0.23;arcSize=10;flipV=1;labelPosition=center;align=center;" parent="vFjSIB8aWJBhCEDBPgKq-1" vertex="1">
                    <mxGeometry x="1209.94" y="410" width="100" height="60" as="geometry"/>
                </mxCell>
                <mxCell id="KgspZBJ3WnkwDHsDAfC4-41" style="edgeStyle=orthogonalEdgeStyle;rounded=1;html=1;elbow=vertical;" parent="vFjSIB8aWJBhCEDBPgKq-1" source="KgspZBJ3WnkwDHsDAfC4-37" target="KgspZBJ3WnkwDHsDAfC4-19" edge="1">
                    <mxGeometry relative="1" as="geometry"/>
                </mxCell>
                <mxCell id="KgspZBJ3WnkwDHsDAfC4-37" value="show forget password form" style="rounded=1;whiteSpace=wrap;html=1;absoluteArcSize=1;arcSize=14;strokeWidth=1;" parent="vFjSIB8aWJBhCEDBPgKq-1" vertex="1">
                    <mxGeometry x="1039.94" y="290" width="120" height="60" as="geometry"/>
                </mxCell>
                <mxCell id="KgspZBJ3WnkwDHsDAfC4-45" style="edgeStyle=orthogonalEdgeStyle;rounded=1;html=1;entryX=0;entryY=0.75;entryDx=0;entryDy=0;elbow=vertical;" parent="vFjSIB8aWJBhCEDBPgKq-1" source="KgspZBJ3WnkwDHsDAfC4-38" target="KgspZBJ3WnkwDHsDAfC4-37" edge="1">
                    <mxGeometry relative="1" as="geometry">
                        <Array as="points">
                            <mxPoint x="1019.94" y="680"/>
                            <mxPoint x="1019.94" y="335"/>
                        </Array>
                    </mxGeometry>
                </mxCell>
                <mxCell id="KgspZBJ3WnkwDHsDAfC4-38" value="show error email doesn't exists" style="rounded=1;whiteSpace=wrap;html=1;absoluteArcSize=1;arcSize=14;strokeWidth=1;" parent="vFjSIB8aWJBhCEDBPgKq-1" vertex="1">
                    <mxGeometry x="1039.94" y="650" width="120" height="60" as="geometry"/>
                </mxCell>
                <mxCell id="Fj0rVQDLP_KVoNsKhhQr-1" style="edgeStyle=none;html=1;" parent="vFjSIB8aWJBhCEDBPgKq-1" source="KgspZBJ3WnkwDHsDAfC4-48" target="Fj0rVQDLP_KVoNsKhhQr-0" edge="1">
                    <mxGeometry relative="1" as="geometry"/>
                </mxCell>
                <mxCell id="KgspZBJ3WnkwDHsDAfC4-48" value="2A" style="strokeWidth=1;html=1;shape=mxgraph.flowchart.start_2;whiteSpace=wrap;" parent="vFjSIB8aWJBhCEDBPgKq-1" vertex="1">
                    <mxGeometry x="1440" y="60" width="40" height="40" as="geometry"/>
                </mxCell>
                <mxCell id="KgspZBJ3WnkwDHsDAfC4-49" value="sign up" style="text;html=1;strokeColor=none;fillColor=none;align=left;verticalAlign=middle;whiteSpace=wrap;rounded=0;" parent="vFjSIB8aWJBhCEDBPgKq-1" vertex="1">
                    <mxGeometry x="1490" y="65" width="60" height="30" as="geometry"/>
                </mxCell>
                <mxCell id="J4hiv8VNPDyNkyrIWYBK-10" style="edgeStyle=orthogonalEdgeStyle;html=1;" parent="vFjSIB8aWJBhCEDBPgKq-1" source="Fj0rVQDLP_KVoNsKhhQr-0" target="J4hiv8VNPDyNkyrIWYBK-3" edge="1">
                    <mxGeometry relative="1" as="geometry"/>
                </mxCell>
                <mxCell id="Fj0rVQDLP_KVoNsKhhQr-0" value="show sign in form" style="rounded=1;whiteSpace=wrap;html=1;absoluteArcSize=1;arcSize=14;strokeWidth=1;" parent="vFjSIB8aWJBhCEDBPgKq-1" vertex="1">
                    <mxGeometry x="1400" y="170" width="120" height="60" as="geometry"/>
                </mxCell>
                <mxCell id="Fj0rVQDLP_KVoNsKhhQr-5" style="edgeStyle=orthogonalEdgeStyle;html=1;entryX=0;entryY=0.5;entryDx=0;entryDy=0;" parent="vFjSIB8aWJBhCEDBPgKq-1" source="Fj0rVQDLP_KVoNsKhhQr-2" target="KgspZBJ3WnkwDHsDAfC4-21" edge="1">
                    <mxGeometry relative="1" as="geometry">
                        <Array as="points">
                            <mxPoint x="620" y="200"/>
                        </Array>
                    </mxGeometry>
                </mxCell>
                <mxCell id="Fj0rVQDLP_KVoNsKhhQr-2" value="show error wrong password" style="rounded=1;whiteSpace=wrap;html=1;absoluteArcSize=1;arcSize=14;strokeWidth=1;" parent="vFjSIB8aWJBhCEDBPgKq-1" vertex="1">
                    <mxGeometry x="560" y="530" width="120" height="60" as="geometry"/>
                </mxCell>
                <mxCell id="J4hiv8VNPDyNkyrIWYBK-9" style="edgeStyle=orthogonalEdgeStyle;html=1;" parent="vFjSIB8aWJBhCEDBPgKq-1" source="J4hiv8VNPDyNkyrIWYBK-3" target="J4hiv8VNPDyNkyrIWYBK-4" edge="1">
                    <mxGeometry relative="1" as="geometry"/>
                </mxCell>
                <mxCell id="J4hiv8VNPDyNkyrIWYBK-3" value="fill sign up&lt;br&gt;form" style="verticalLabelPosition=middle;verticalAlign=middle;html=1;shape=trapezoid;perimeter=trapezoidPerimeter;whiteSpace=wrap;size=0.23;arcSize=10;flipV=1;labelPosition=center;align=center;" parent="vFjSIB8aWJBhCEDBPgKq-1" vertex="1">
                    <mxGeometry x="1570" y="170" width="100" height="60" as="geometry"/>
                </mxCell>
                <mxCell id="J4hiv8VNPDyNkyrIWYBK-8" value="yes" style="edgeStyle=orthogonalEdgeStyle;html=1;" parent="vFjSIB8aWJBhCEDBPgKq-1" source="J4hiv8VNPDyNkyrIWYBK-4" target="J4hiv8VNPDyNkyrIWYBK-5" edge="1">
                    <mxGeometry relative="1" as="geometry"/>
                </mxCell>
                <mxCell id="J4hiv8VNPDyNkyrIWYBK-12" value="no" style="edgeStyle=orthogonalEdgeStyle;html=1;" parent="vFjSIB8aWJBhCEDBPgKq-1" source="J4hiv8VNPDyNkyrIWYBK-4" target="J4hiv8VNPDyNkyrIWYBK-11" edge="1">
                    <mxGeometry relative="1" as="geometry"/>
                </mxCell>
                <mxCell id="J4hiv8VNPDyNkyrIWYBK-4" value="already exists?" style="strokeWidth=1;html=1;shape=mxgraph.flowchart.decision;whiteSpace=wrap;" parent="vFjSIB8aWJBhCEDBPgKq-1" vertex="1">
                    <mxGeometry x="1570" y="290" width="100" height="60" as="geometry"/>
                </mxCell>
                <mxCell id="J4hiv8VNPDyNkyrIWYBK-7" style="edgeStyle=orthogonalEdgeStyle;html=1;" parent="vFjSIB8aWJBhCEDBPgKq-1" source="J4hiv8VNPDyNkyrIWYBK-5" target="J4hiv8VNPDyNkyrIWYBK-6" edge="1">
                    <mxGeometry relative="1" as="geometry"/>
                </mxCell>
                <mxCell id="J4hiv8VNPDyNkyrIWYBK-5" value="send verification email" style="rounded=1;whiteSpace=wrap;html=1;absoluteArcSize=1;arcSize=14;strokeWidth=1;" parent="vFjSIB8aWJBhCEDBPgKq-1" vertex="1">
                    <mxGeometry x="1560" y="410" width="120" height="60" as="geometry"/>
                </mxCell>
                <mxCell id="J4hiv8VNPDyNkyrIWYBK-15" style="edgeStyle=orthogonalEdgeStyle;html=1;" parent="vFjSIB8aWJBhCEDBPgKq-1" source="J4hiv8VNPDyNkyrIWYBK-6" target="J4hiv8VNPDyNkyrIWYBK-14" edge="1">
                    <mxGeometry relative="1" as="geometry"/>
                </mxCell>
                <mxCell id="J4hiv8VNPDyNkyrIWYBK-6" value="open&lt;br&gt;verification&lt;br&gt;url" style="verticalLabelPosition=middle;verticalAlign=middle;html=1;shape=trapezoid;perimeter=trapezoidPerimeter;whiteSpace=wrap;size=0.23;arcSize=10;flipV=1;labelPosition=center;align=center;" parent="vFjSIB8aWJBhCEDBPgKq-1" vertex="1">
                    <mxGeometry x="1410" y="410" width="100" height="60" as="geometry"/>
                </mxCell>
                <mxCell id="J4hiv8VNPDyNkyrIWYBK-16" style="edgeStyle=orthogonalEdgeStyle;html=1;" parent="vFjSIB8aWJBhCEDBPgKq-1" source="J4hiv8VNPDyNkyrIWYBK-11" target="Fj0rVQDLP_KVoNsKhhQr-0" edge="1">
                    <mxGeometry relative="1" as="geometry"/>
                </mxCell>
                <mxCell id="J4hiv8VNPDyNkyrIWYBK-11" value="show error user already exists" style="rounded=1;whiteSpace=wrap;html=1;absoluteArcSize=1;arcSize=14;strokeWidth=1;" parent="vFjSIB8aWJBhCEDBPgKq-1" vertex="1">
                    <mxGeometry x="1400" y="290" width="120" height="60" as="geometry"/>
                </mxCell>
                <mxCell id="J4hiv8VNPDyNkyrIWYBK-18" style="edgeStyle=orthogonalEdgeStyle;html=1;" parent="vFjSIB8aWJBhCEDBPgKq-1" source="J4hiv8VNPDyNkyrIWYBK-14" target="J4hiv8VNPDyNkyrIWYBK-17" edge="1">
                    <mxGeometry relative="1" as="geometry"/>
                </mxCell>
                <mxCell id="J4hiv8VNPDyNkyrIWYBK-14" value="verify user" style="rounded=1;whiteSpace=wrap;html=1;absoluteArcSize=1;arcSize=14;strokeWidth=1;" parent="vFjSIB8aWJBhCEDBPgKq-1" vertex="1">
                    <mxGeometry x="1400" y="530" width="120" height="60" as="geometry"/>
                </mxCell>
                <mxCell id="J4hiv8VNPDyNkyrIWYBK-17" value="1A" style="strokeWidth=1;html=1;shape=mxgraph.flowchart.start_2;whiteSpace=wrap;" parent="vFjSIB8aWJBhCEDBPgKq-1" vertex="1">
                    <mxGeometry x="1600" y="540" width="40" height="40" as="geometry"/>
                </mxCell>
                <mxCell id="w_DtdS0E6w8nUmLQs-ak-1" style="edgeStyle=orthogonalEdgeStyle;html=1;" parent="vFjSIB8aWJBhCEDBPgKq-1" source="w_DtdS0E6w8nUmLQs-ak-0" target="N0m6JV3VvyiPqrdoSzJ2-0" edge="1">
                    <mxGeometry relative="1" as="geometry">
                        <mxPoint x="480" y="440" as="targetPoint"/>
                    </mxGeometry>
                </mxCell>
                <mxCell id="w_DtdS0E6w8nUmLQs-ak-0" value="1B" style="strokeWidth=1;html=1;shape=mxgraph.flowchart.start_2;whiteSpace=wrap;" parent="vFjSIB8aWJBhCEDBPgKq-1" vertex="1">
                    <mxGeometry x="400" y="540" width="40" height="40" as="geometry"/>
                </mxCell>
                <mxCell id="N0m6JV3VvyiPqrdoSzJ2-0" value="show dashboard" style="strokeWidth=1;html=1;shape=mxgraph.flowchart.terminator;whiteSpace=wrap;" parent="vFjSIB8aWJBhCEDBPgKq-1" vertex="1">
                    <mxGeometry x="210" y="530" width="100" height="60" as="geometry"/>
                </mxCell>
                <mxCell id="yDI2sjeIhTd0vfZzBRfV-0" value="send to change plan flow" style="strokeWidth=1;html=1;shape=mxgraph.flowchart.terminator;whiteSpace=wrap;" vertex="1" parent="vFjSIB8aWJBhCEDBPgKq-1">
                    <mxGeometry x="50" y="650" width="100" height="60" as="geometry"/>
                </mxCell>
            </root>
        </mxGraphModel>
    </diagram>
    <diagram name="Dashboard Navigation" id="W1F1l36FJfB_dskNXQ-Q">
        <mxGraphModel dx="1145" dy="787" grid="1" gridSize="10" guides="1" tooltips="1" connect="1" arrows="1" fold="1" page="1" pageScale="1" pageWidth="1100" pageHeight="850" background="none" math="0" shadow="0">
            <root>
                <mxCell id="zkFhLD94ikXysWB3_5s8-0"/>
                <mxCell id="zkFhLD94ikXysWB3_5s8-1" parent="zkFhLD94ikXysWB3_5s8-0"/>
                <mxCell id="nLWhNLTnUcUl4BDBAf3V-5" value="no" style="edgeStyle=orthogonalEdgeStyle;html=1;" parent="zkFhLD94ikXysWB3_5s8-1" source="nLWhNLTnUcUl4BDBAf3V-2" target="nLWhNLTnUcUl4BDBAf3V-3" edge="1">
                    <mxGeometry relative="1" as="geometry"/>
                </mxCell>
                <mxCell id="nLWhNLTnUcUl4BDBAf3V-9" value="yes" style="edgeStyle=orthogonalEdgeStyle;html=1;" parent="zkFhLD94ikXysWB3_5s8-1" source="nLWhNLTnUcUl4BDBAf3V-2" target="vANeKmZyTCLMOjEmZjgQ-0" edge="1">
                    <mxGeometry relative="1" as="geometry">
                        <mxPoint x="301.4999999999998" y="320" as="targetPoint"/>
                    </mxGeometry>
                </mxCell>
                <mxCell id="nLWhNLTnUcUl4BDBAf3V-2" value="open profile settings?" style="strokeWidth=1;html=1;shape=mxgraph.flowchart.decision;whiteSpace=wrap;" parent="zkFhLD94ikXysWB3_5s8-1" vertex="1">
                    <mxGeometry x="130" y="290" width="100" height="60" as="geometry"/>
                </mxCell>
                <mxCell id="nLWhNLTnUcUl4BDBAf3V-8" value="yes" style="edgeStyle=orthogonalEdgeStyle;html=1;" parent="zkFhLD94ikXysWB3_5s8-1" source="nLWhNLTnUcUl4BDBAf3V-3" target="KiNaUyb2MqHZmDOcEok6-0" edge="1">
                    <mxGeometry relative="1" as="geometry">
                        <mxPoint x="301.4999999999998" y="440" as="targetPoint"/>
                    </mxGeometry>
                </mxCell>
                <mxCell id="L5VED4tFRuswFncXlasJ-4" value="no" style="edgeStyle=orthogonalEdgeStyle;html=1;" parent="zkFhLD94ikXysWB3_5s8-1" source="nLWhNLTnUcUl4BDBAf3V-3" target="L5VED4tFRuswFncXlasJ-3" edge="1">
                    <mxGeometry relative="1" as="geometry"/>
                </mxCell>
                <mxCell id="nLWhNLTnUcUl4BDBAf3V-3" value="open plan settings?" style="strokeWidth=1;html=1;shape=mxgraph.flowchart.decision;whiteSpace=wrap;" parent="zkFhLD94ikXysWB3_5s8-1" vertex="1">
                    <mxGeometry x="130" y="410" width="100" height="60" as="geometry"/>
                </mxCell>
                <mxCell id="L5VED4tFRuswFncXlasJ-2" style="edgeStyle=orthogonalEdgeStyle;html=1;" parent="zkFhLD94ikXysWB3_5s8-1" source="n1O6o03NLIt1vVjOK-5G-0" target="L5VED4tFRuswFncXlasJ-0" edge="1">
                    <mxGeometry relative="1" as="geometry"/>
                </mxCell>
                <mxCell id="n1O6o03NLIt1vVjOK-5G-0" value="user open dashboard" style="strokeWidth=1;html=1;shape=mxgraph.flowchart.start_1;whiteSpace=wrap;" parent="zkFhLD94ikXysWB3_5s8-1" vertex="1">
                    <mxGeometry x="130" y="50" width="100" height="60" as="geometry"/>
                </mxCell>
                <mxCell id="L5VED4tFRuswFncXlasJ-1" style="edgeStyle=orthogonalEdgeStyle;html=1;" parent="zkFhLD94ikXysWB3_5s8-1" source="L5VED4tFRuswFncXlasJ-0" target="nLWhNLTnUcUl4BDBAf3V-2" edge="1">
                    <mxGeometry relative="1" as="geometry"/>
                </mxCell>
                <mxCell id="L5VED4tFRuswFncXlasJ-0" value="show main dashboard page" style="rounded=1;whiteSpace=wrap;html=1;absoluteArcSize=1;arcSize=14;strokeWidth=1;" parent="zkFhLD94ikXysWB3_5s8-1" vertex="1">
                    <mxGeometry x="120" y="170" width="120" height="60" as="geometry"/>
                </mxCell>
                <mxCell id="L5VED4tFRuswFncXlasJ-3" value="use the app" style="strokeWidth=1;html=1;shape=mxgraph.flowchart.terminator;whiteSpace=wrap;" parent="zkFhLD94ikXysWB3_5s8-1" vertex="1">
                    <mxGeometry x="130" y="530" width="100" height="60" as="geometry"/>
                </mxCell>
                <mxCell id="vANeKmZyTCLMOjEmZjgQ-0" value="show profile settings" style="strokeWidth=1;html=1;shape=mxgraph.flowchart.terminator;whiteSpace=wrap;" parent="zkFhLD94ikXysWB3_5s8-1" vertex="1">
                    <mxGeometry x="290" y="290" width="100" height="60" as="geometry"/>
                </mxCell>
                <mxCell id="KiNaUyb2MqHZmDOcEok6-0" value="show plan settings" style="strokeWidth=1;html=1;shape=mxgraph.flowchart.terminator;whiteSpace=wrap;" parent="zkFhLD94ikXysWB3_5s8-1" vertex="1">
                    <mxGeometry x="290" y="410" width="100" height="60" as="geometry"/>
                </mxCell>
            </root>
        </mxGraphModel>
    </diagram>
    <diagram name="Plan Settings" id="2FSS9qqKVWQvFNYarw_W">
        <mxGraphModel dx="1145" dy="787" grid="1" gridSize="10" guides="1" tooltips="1" connect="1" arrows="1" fold="1" page="1" pageScale="1" pageWidth="1100" pageHeight="850" background="none" math="0" shadow="0">
            <root>
                <mxCell id="7C_CKWtFeermJ4g05LHr-0"/>
                <mxCell id="7C_CKWtFeermJ4g05LHr-1" parent="7C_CKWtFeermJ4g05LHr-0"/>
                <mxCell id="p5Apdz7F47IEkpAc98Y9-21" style="edgeStyle=orthogonalEdgeStyle;html=1;" parent="7C_CKWtFeermJ4g05LHr-1" edge="1">
                    <mxGeometry relative="1" as="geometry">
                        <mxPoint x="640" y="400" as="sourcePoint"/>
                    </mxGeometry>
                </mxCell>
                <mxCell id="p5Apdz7F47IEkpAc98Y9-32" style="edgeStyle=orthogonalEdgeStyle;html=1;" parent="7C_CKWtFeermJ4g05LHr-1" edge="1">
                    <mxGeometry relative="1" as="geometry">
                        <mxPoint x="778.5000000000005" y="400" as="sourcePoint"/>
                    </mxGeometry>
                </mxCell>
                <mxCell id="cUt6lExhoFqTErDo8sWt-11" style="edgeStyle=orthogonalEdgeStyle;html=1;" parent="7C_CKWtFeermJ4g05LHr-1" source="cUt6lExhoFqTErDo8sWt-0" target="cUt6lExhoFqTErDo8sWt-1" edge="1">
                    <mxGeometry relative="1" as="geometry"/>
                </mxCell>
                <mxCell id="cUt6lExhoFqTErDo8sWt-0" value="add payment method" style="strokeWidth=1;html=1;shape=mxgraph.flowchart.start_1;whiteSpace=wrap;" parent="7C_CKWtFeermJ4g05LHr-1" vertex="1">
                    <mxGeometry x="50" y="50" width="100" height="60" as="geometry"/>
                </mxCell>
                <mxCell id="cUt6lExhoFqTErDo8sWt-10" style="edgeStyle=orthogonalEdgeStyle;html=1;" parent="7C_CKWtFeermJ4g05LHr-1" source="cUt6lExhoFqTErDo8sWt-1" target="cUt6lExhoFqTErDo8sWt-2" edge="1">
                    <mxGeometry relative="1" as="geometry"/>
                </mxCell>
                <mxCell id="cUt6lExhoFqTErDo8sWt-1" value="show add form" style="rounded=1;whiteSpace=wrap;html=1;absoluteArcSize=1;arcSize=14;strokeWidth=1;" parent="7C_CKWtFeermJ4g05LHr-1" vertex="1">
                    <mxGeometry x="40" y="170" width="120" height="60" as="geometry"/>
                </mxCell>
                <mxCell id="cUt6lExhoFqTErDo8sWt-7" style="edgeStyle=orthogonalEdgeStyle;html=1;" parent="7C_CKWtFeermJ4g05LHr-1" source="cUt6lExhoFqTErDo8sWt-2" target="cUt6lExhoFqTErDo8sWt-4" edge="1">
                    <mxGeometry relative="1" as="geometry"/>
                </mxCell>
                <mxCell id="cUt6lExhoFqTErDo8sWt-2" value="fill add form" style="verticalLabelPosition=middle;verticalAlign=middle;html=1;shape=trapezoid;perimeter=trapezoidPerimeter;whiteSpace=wrap;size=0.23;arcSize=10;flipV=1;labelPosition=center;align=center;" parent="7C_CKWtFeermJ4g05LHr-1" vertex="1">
                    <mxGeometry x="50" y="290" width="100" height="60" as="geometry"/>
                </mxCell>
                <mxCell id="cUt6lExhoFqTErDo8sWt-8" value="no" style="edgeStyle=orthogonalEdgeStyle;html=1;" parent="7C_CKWtFeermJ4g05LHr-1" source="cUt6lExhoFqTErDo8sWt-4" target="cUt6lExhoFqTErDo8sWt-6" edge="1">
                    <mxGeometry relative="1" as="geometry"/>
                </mxCell>
                <mxCell id="cUt6lExhoFqTErDo8sWt-9" value="yes" style="edgeStyle=orthogonalEdgeStyle;html=1;" parent="7C_CKWtFeermJ4g05LHr-1" source="cUt6lExhoFqTErDo8sWt-4" target="cUt6lExhoFqTErDo8sWt-5" edge="1">
                    <mxGeometry relative="1" as="geometry"/>
                </mxCell>
                <mxCell id="cUt6lExhoFqTErDo8sWt-4" value="set as default?" style="strokeWidth=1;html=1;shape=mxgraph.flowchart.decision;whiteSpace=wrap;" parent="7C_CKWtFeermJ4g05LHr-1" vertex="1">
                    <mxGeometry x="50" y="410" width="100" height="60" as="geometry"/>
                </mxCell>
                <mxCell id="cUt6lExhoFqTErDo8sWt-5" value="add payment method and set as default" style="strokeWidth=1;html=1;shape=mxgraph.flowchart.terminator;whiteSpace=wrap;" parent="7C_CKWtFeermJ4g05LHr-1" vertex="1">
                    <mxGeometry x="210" y="410" width="100" height="60" as="geometry"/>
                </mxCell>
                <mxCell id="cUt6lExhoFqTErDo8sWt-6" value="add payment method" style="strokeWidth=1;html=1;shape=mxgraph.flowchart.terminator;whiteSpace=wrap;" parent="7C_CKWtFeermJ4g05LHr-1" vertex="1">
                    <mxGeometry x="50" y="530" width="100" height="60" as="geometry"/>
                </mxCell>
                <mxCell id="cUt6lExhoFqTErDo8sWt-18" style="edgeStyle=orthogonalEdgeStyle;html=1;" parent="7C_CKWtFeermJ4g05LHr-1" source="cUt6lExhoFqTErDo8sWt-12" target="cUt6lExhoFqTErDo8sWt-13" edge="1">
                    <mxGeometry relative="1" as="geometry"/>
                </mxCell>
                <mxCell id="cUt6lExhoFqTErDo8sWt-12" value="set default payment method" style="strokeWidth=1;html=1;shape=mxgraph.flowchart.start_1;whiteSpace=wrap;" parent="7C_CKWtFeermJ4g05LHr-1" vertex="1">
                    <mxGeometry x="410" y="50" width="100" height="60" as="geometry"/>
                </mxCell>
                <mxCell id="cUt6lExhoFqTErDo8sWt-15" style="edgeStyle=orthogonalEdgeStyle;html=1;" parent="7C_CKWtFeermJ4g05LHr-1" source="cUt6lExhoFqTErDo8sWt-13" target="cUt6lExhoFqTErDo8sWt-14" edge="1">
                    <mxGeometry relative="1" as="geometry"/>
                </mxCell>
                <mxCell id="cUt6lExhoFqTErDo8sWt-13" value="show payment methods" style="rounded=1;whiteSpace=wrap;html=1;absoluteArcSize=1;arcSize=14;strokeWidth=1;" parent="7C_CKWtFeermJ4g05LHr-1" vertex="1">
                    <mxGeometry x="400" y="170" width="120" height="60" as="geometry"/>
                </mxCell>
                <mxCell id="cUt6lExhoFqTErDo8sWt-17" style="edgeStyle=orthogonalEdgeStyle;html=1;" parent="7C_CKWtFeermJ4g05LHr-1" source="cUt6lExhoFqTErDo8sWt-14" target="cUt6lExhoFqTErDo8sWt-16" edge="1">
                    <mxGeometry relative="1" as="geometry"/>
                </mxCell>
                <mxCell id="cUt6lExhoFqTErDo8sWt-14" value="choose&lt;br&gt;payment&lt;br&gt;method" style="verticalLabelPosition=middle;verticalAlign=middle;html=1;shape=trapezoid;perimeter=trapezoidPerimeter;whiteSpace=wrap;size=0.23;arcSize=10;flipV=1;labelPosition=center;align=center;" parent="7C_CKWtFeermJ4g05LHr-1" vertex="1">
                    <mxGeometry x="410" y="290" width="100" height="60" as="geometry"/>
                </mxCell>
                <mxCell id="cUt6lExhoFqTErDo8sWt-16" value="set as default payment method" style="strokeWidth=1;html=1;shape=mxgraph.flowchart.terminator;whiteSpace=wrap;" parent="7C_CKWtFeermJ4g05LHr-1" vertex="1">
                    <mxGeometry x="410" y="410" width="100" height="60" as="geometry"/>
                </mxCell>
                <mxCell id="cUt6lExhoFqTErDo8sWt-26" style="edgeStyle=orthogonalEdgeStyle;html=1;" parent="7C_CKWtFeermJ4g05LHr-1" source="cUt6lExhoFqTErDo8sWt-19" target="cUt6lExhoFqTErDo8sWt-20" edge="1">
                    <mxGeometry relative="1" as="geometry"/>
                </mxCell>
                <mxCell id="cUt6lExhoFqTErDo8sWt-19" value="delete payment method" style="strokeWidth=1;html=1;shape=mxgraph.flowchart.start_1;whiteSpace=wrap;" parent="7C_CKWtFeermJ4g05LHr-1" vertex="1">
                    <mxGeometry x="610" y="50" width="100" height="60" as="geometry"/>
                </mxCell>
                <mxCell id="cUt6lExhoFqTErDo8sWt-22" value="yes" style="edgeStyle=orthogonalEdgeStyle;html=1;" parent="7C_CKWtFeermJ4g05LHr-1" source="cUt6lExhoFqTErDo8sWt-20" target="cUt6lExhoFqTErDo8sWt-21" edge="1">
                    <mxGeometry relative="1" as="geometry"/>
                </mxCell>
                <mxCell id="cUt6lExhoFqTErDo8sWt-27" value="no" style="edgeStyle=orthogonalEdgeStyle;html=1;" parent="7C_CKWtFeermJ4g05LHr-1" source="cUt6lExhoFqTErDo8sWt-20" target="cUt6lExhoFqTErDo8sWt-23" edge="1">
                    <mxGeometry relative="1" as="geometry"/>
                </mxCell>
                <mxCell id="cUt6lExhoFqTErDo8sWt-20" value="is default?" style="strokeWidth=1;html=1;shape=mxgraph.flowchart.decision;whiteSpace=wrap;" parent="7C_CKWtFeermJ4g05LHr-1" vertex="1">
                    <mxGeometry x="610" y="170" width="100" height="60" as="geometry"/>
                </mxCell>
                <mxCell id="cUt6lExhoFqTErDo8sWt-21" value="show error can't delete default payment method" style="strokeWidth=1;html=1;shape=mxgraph.flowchart.terminator;whiteSpace=wrap;" parent="7C_CKWtFeermJ4g05LHr-1" vertex="1">
                    <mxGeometry x="770" y="170" width="100" height="60" as="geometry"/>
                </mxCell>
                <mxCell id="cUt6lExhoFqTErDo8sWt-25" value="yes" style="edgeStyle=orthogonalEdgeStyle;html=1;" parent="7C_CKWtFeermJ4g05LHr-1" source="cUt6lExhoFqTErDo8sWt-23" target="cUt6lExhoFqTErDo8sWt-24" edge="1">
                    <mxGeometry relative="1" as="geometry"/>
                </mxCell>
                <mxCell id="cUt6lExhoFqTErDo8sWt-29" style="edgeStyle=orthogonalEdgeStyle;html=1;" parent="7C_CKWtFeermJ4g05LHr-1" source="cUt6lExhoFqTErDo8sWt-23" target="cUt6lExhoFqTErDo8sWt-28" edge="1">
                    <mxGeometry relative="1" as="geometry"/>
                </mxCell>
                <mxCell id="cUt6lExhoFqTErDo8sWt-23" value="confirm delete?" style="strokeWidth=1;html=1;shape=mxgraph.flowchart.decision;whiteSpace=wrap;" parent="7C_CKWtFeermJ4g05LHr-1" vertex="1">
                    <mxGeometry x="610" y="290" width="100" height="60" as="geometry"/>
                </mxCell>
                <mxCell id="cUt6lExhoFqTErDo8sWt-24" value="delete payment method" style="strokeWidth=1;html=1;shape=mxgraph.flowchart.terminator;whiteSpace=wrap;" parent="7C_CKWtFeermJ4g05LHr-1" vertex="1">
                    <mxGeometry x="770" y="290" width="100" height="60" as="geometry"/>
                </mxCell>
                <mxCell id="cUt6lExhoFqTErDo8sWt-28" value="cancel delete payment method" style="strokeWidth=1;html=1;shape=mxgraph.flowchart.terminator;whiteSpace=wrap;" parent="7C_CKWtFeermJ4g05LHr-1" vertex="1">
                    <mxGeometry x="610" y="410" width="100" height="60" as="geometry"/>
                </mxCell>
                <mxCell id="pWhzst03AdZCTncEQSp4-0" style="edgeStyle=orthogonalEdgeStyle;html=1;" parent="7C_CKWtFeermJ4g05LHr-1" source="cUt6lExhoFqTErDo8sWt-30" target="cUt6lExhoFqTErDo8sWt-31" edge="1">
                    <mxGeometry relative="1" as="geometry"/>
                </mxCell>
                <mxCell id="cUt6lExhoFqTErDo8sWt-30" value="change plan" style="strokeWidth=1;html=1;shape=mxgraph.flowchart.start_1;whiteSpace=wrap;" parent="7C_CKWtFeermJ4g05LHr-1" vertex="1">
                    <mxGeometry x="970" y="50" width="100" height="60" as="geometry"/>
                </mxCell>
                <mxCell id="cUt6lExhoFqTErDo8sWt-33" style="edgeStyle=orthogonalEdgeStyle;html=1;" parent="7C_CKWtFeermJ4g05LHr-1" source="cUt6lExhoFqTErDo8sWt-31" target="cUt6lExhoFqTErDo8sWt-32" edge="1">
                    <mxGeometry relative="1" as="geometry"/>
                </mxCell>
                <mxCell id="cUt6lExhoFqTErDo8sWt-31" value="choose a plan" style="verticalLabelPosition=middle;verticalAlign=middle;html=1;shape=trapezoid;perimeter=trapezoidPerimeter;whiteSpace=wrap;size=0.23;arcSize=10;flipV=1;labelPosition=center;align=center;" parent="7C_CKWtFeermJ4g05LHr-1" vertex="1">
                    <mxGeometry x="970" y="170" width="100" height="60" as="geometry"/>
                </mxCell>
                <mxCell id="dUpvzXzO5Pv2ERPQ707--0" value="no" style="edgeStyle=orthogonalEdgeStyle;html=1;" parent="7C_CKWtFeermJ4g05LHr-1" source="cUt6lExhoFqTErDo8sWt-32" target="cUt6lExhoFqTErDo8sWt-34" edge="1">
                    <mxGeometry relative="1" as="geometry"/>
                </mxCell>
                <mxCell id="pWhzst03AdZCTncEQSp4-2" value="yes" style="edgeStyle=orthogonalEdgeStyle;html=1;" parent="7C_CKWtFeermJ4g05LHr-1" source="cUt6lExhoFqTErDo8sWt-32" target="pWhzst03AdZCTncEQSp4-1" edge="1">
                    <mxGeometry relative="1" as="geometry"/>
                </mxCell>
                <mxCell id="cUt6lExhoFqTErDo8sWt-32" value="have payment method?" style="strokeWidth=1;html=1;shape=mxgraph.flowchart.decision;whiteSpace=wrap;" parent="7C_CKWtFeermJ4g05LHr-1" vertex="1">
                    <mxGeometry x="970" y="290" width="100" height="60" as="geometry"/>
                </mxCell>
                <mxCell id="pcttrcgV6jQFhENjACEp-0" style="edgeStyle=orthogonalEdgeStyle;html=1;" parent="7C_CKWtFeermJ4g05LHr-1" source="cUt6lExhoFqTErDo8sWt-34" target="9TCHPlDjW0ES3ylV_DSv-0" edge="1">
                    <mxGeometry relative="1" as="geometry"/>
                </mxCell>
                <mxCell id="cUt6lExhoFqTErDo8sWt-34" value="show payment form" style="rounded=1;whiteSpace=wrap;html=1;absoluteArcSize=1;arcSize=14;strokeWidth=1;" parent="7C_CKWtFeermJ4g05LHr-1" vertex="1">
                    <mxGeometry x="1120" y="290" width="120" height="60" as="geometry"/>
                </mxCell>
                <mxCell id="4z2MS6gV1kSm2ZssP0yj-7" style="edgeStyle=orthogonalEdgeStyle;html=1;" edge="1" parent="7C_CKWtFeermJ4g05LHr-1" source="9TCHPlDjW0ES3ylV_DSv-0" target="4z2MS6gV1kSm2ZssP0yj-2">
                    <mxGeometry relative="1" as="geometry"/>
                </mxCell>
                <mxCell id="9TCHPlDjW0ES3ylV_DSv-0" value="fill payment&lt;br&gt;form" style="verticalLabelPosition=middle;verticalAlign=middle;html=1;shape=trapezoid;perimeter=trapezoidPerimeter;whiteSpace=wrap;size=0.23;arcSize=10;flipV=1;labelPosition=center;align=center;" parent="7C_CKWtFeermJ4g05LHr-1" vertex="1">
                    <mxGeometry x="1130" y="170" width="100" height="60" as="geometry"/>
                </mxCell>
                <mxCell id="pWhzst03AdZCTncEQSp4-7" value="yes" style="edgeStyle=orthogonalEdgeStyle;html=1;" parent="7C_CKWtFeermJ4g05LHr-1" source="pWhzst03AdZCTncEQSp4-1" target="pWhzst03AdZCTncEQSp4-6" edge="1">
                    <mxGeometry relative="1" as="geometry"/>
                </mxCell>
                <mxCell id="pWhzst03AdZCTncEQSp4-14" value="no" style="edgeStyle=orthogonalEdgeStyle;html=1;" parent="7C_CKWtFeermJ4g05LHr-1" source="pWhzst03AdZCTncEQSp4-1" target="pWhzst03AdZCTncEQSp4-13" edge="1">
                    <mxGeometry relative="1" as="geometry"/>
                </mxCell>
                <mxCell id="pWhzst03AdZCTncEQSp4-1" value="have active&lt;br&gt;paid plan?" style="strokeWidth=1;html=1;shape=mxgraph.flowchart.decision;whiteSpace=wrap;" parent="7C_CKWtFeermJ4g05LHr-1" vertex="1">
                    <mxGeometry x="970" y="410" width="100" height="60" as="geometry"/>
                </mxCell>
                <mxCell id="pWhzst03AdZCTncEQSp4-10" value="yes" style="edgeStyle=orthogonalEdgeStyle;html=1;" parent="7C_CKWtFeermJ4g05LHr-1" source="pWhzst03AdZCTncEQSp4-6" target="pWhzst03AdZCTncEQSp4-9" edge="1">
                    <mxGeometry relative="1" as="geometry"/>
                </mxCell>
                <mxCell id="pWhzst03AdZCTncEQSp4-12" value="no" style="edgeStyle=orthogonalEdgeStyle;html=1;" parent="7C_CKWtFeermJ4g05LHr-1" source="pWhzst03AdZCTncEQSp4-6" target="pWhzst03AdZCTncEQSp4-11" edge="1">
                    <mxGeometry relative="1" as="geometry"/>
                </mxCell>
                <mxCell id="pWhzst03AdZCTncEQSp4-6" value="upgrade?" style="strokeWidth=1;html=1;shape=mxgraph.flowchart.decision;whiteSpace=wrap;" parent="7C_CKWtFeermJ4g05LHr-1" vertex="1">
                    <mxGeometry x="970" y="530" width="100" height="60" as="geometry"/>
                </mxCell>
                <mxCell id="pWhzst03AdZCTncEQSp4-9" value="remove previous plan, activate new plan" style="strokeWidth=1;html=1;shape=mxgraph.flowchart.terminator;whiteSpace=wrap;" parent="7C_CKWtFeermJ4g05LHr-1" vertex="1">
                    <mxGeometry x="970" y="650" width="100" height="60" as="geometry"/>
                </mxCell>
                <mxCell id="pWhzst03AdZCTncEQSp4-11" value="activate new plan after next billing" style="strokeWidth=1;html=1;shape=mxgraph.flowchart.terminator;whiteSpace=wrap;" parent="7C_CKWtFeermJ4g05LHr-1" vertex="1">
                    <mxGeometry x="1130" y="530" width="100" height="60" as="geometry"/>
                </mxCell>
                <mxCell id="pWhzst03AdZCTncEQSp4-13" value="activate plan" style="strokeWidth=1;html=1;shape=mxgraph.flowchart.terminator;whiteSpace=wrap;" parent="7C_CKWtFeermJ4g05LHr-1" vertex="1">
                    <mxGeometry x="1130" y="410" width="100" height="60" as="geometry"/>
                </mxCell>
                <mxCell id="4z2MS6gV1kSm2ZssP0yj-3" value="yes" style="edgeStyle=orthogonalEdgeStyle;html=1;entryX=1;entryY=0.5;entryDx=0;entryDy=0;entryPerimeter=0;" edge="1" parent="7C_CKWtFeermJ4g05LHr-1" source="4z2MS6gV1kSm2ZssP0yj-2" target="pWhzst03AdZCTncEQSp4-13">
                    <mxGeometry relative="1" as="geometry">
                        <Array as="points">
                            <mxPoint x="1420" y="200"/>
                            <mxPoint x="1420" y="440"/>
                        </Array>
                    </mxGeometry>
                </mxCell>
                <mxCell id="4z2MS6gV1kSm2ZssP0yj-8" value="no" style="edgeStyle=orthogonalEdgeStyle;html=1;" edge="1" parent="7C_CKWtFeermJ4g05LHr-1" source="4z2MS6gV1kSm2ZssP0yj-2" target="4z2MS6gV1kSm2ZssP0yj-6">
                    <mxGeometry relative="1" as="geometry"/>
                </mxCell>
                <mxCell id="4z2MS6gV1kSm2ZssP0yj-2" value="charge success?" style="strokeWidth=1;html=1;shape=mxgraph.flowchart.decision;whiteSpace=wrap;" vertex="1" parent="7C_CKWtFeermJ4g05LHr-1">
                    <mxGeometry x="1290" y="170" width="100" height="60" as="geometry"/>
                </mxCell>
                <mxCell id="4z2MS6gV1kSm2ZssP0yj-9" style="edgeStyle=orthogonalEdgeStyle;html=1;" edge="1" parent="7C_CKWtFeermJ4g05LHr-1" source="4z2MS6gV1kSm2ZssP0yj-6" target="cUt6lExhoFqTErDo8sWt-34">
                    <mxGeometry relative="1" as="geometry"/>
                </mxCell>
                <mxCell id="4z2MS6gV1kSm2ZssP0yj-6" value="show error charge failed" style="rounded=1;whiteSpace=wrap;html=1;absoluteArcSize=1;arcSize=14;strokeWidth=1;" vertex="1" parent="7C_CKWtFeermJ4g05LHr-1">
                    <mxGeometry x="1280" y="290" width="120" height="60" as="geometry"/>
                </mxCell>
            </root>
        </mxGraphModel>
    </diagram>
</mxfile>